<?xml version="1.0" standalone="no"?>
<!DOCTYPE svg PUBLIC "-//W3C//DTD SVG 20010904//EN"
 "http://www.w3.org/TR/2001/REC-SVG-20010904/DTD/svg10.dtd">
<svg version="1.0" xmlns="http://www.w3.org/2000/svg"
 width="512.000000pt" height="512.000000pt" viewBox="0 0 512.000000 512.000000"
 preserveAspectRatio="xMidYMid meet">
<metadata>
Created by potrace 1.11, written by Peter Selinger 2001-2013
</metadata>
<g transform="translate(0.000000,512.000000) scale(0.100000,-0.100000)"
fill="#000000" stroke="none">
<path d="M2365 5114 c-16 -2 -73 -9 -125 -15 -546 -62 -1088 -327 -1490 -729
-402 -402 -650 -909 -732 -1490 -17 -125 -17 -515 0 -640 82 -581 330 -1087
732 -1490 413 -412 920 -656 1528 -735 161 -21 511 -16 662 9 573 97 1036 332
1430 726 508 508 771 1175 747 1890 -20 574 -206 1076 -565 1527 -397 499
-983 831 -1634 929 -97 14 -487 27 -553 18z m-283 -878 c266 -51 498 -206 648
-434 27 -39 50 -77 52 -83 3 -8 32 -5 98 11 128 31 300 31 415 1 95 -25 201
-74 284 -130 78 -53 87 -69 20 -35 -123 62 -232 86 -390 86 -325 -1 -626 -187
-771 -477 -17 -33 -32 -61 -33 -63 -1 -1 -34 13 -73 33 -213 107 -474 98 -692
-22 -79 -44 -221 -184 -268 -265 -47 -79 -82 -186 -95 -287 l-10 -86 -55 -24
c-189 -84 -339 -248 -410 -449 -25 -71 -27 -88 -26 -227 0 -124 4 -160 21
-207 25 -71 12 -66 -26 10 -49 97 -72 188 -78 302 -6 136 12 226 71 345 72
145 164 242 304 321 34 20 62 37 62 40 0 2 -18 27 -40 56 -22 29 -60 91 -84
138 -307 595 38 1313 694 1445 88 18 292 18 382 1z m1562 -1466 c80 -20 169
-63 221 -105 29 -23 27 -23 -50 7 -65 25 -99 32 -182 36 -130 6 -205 -8 -312
-60 -125 -60 -251 -194 -297 -316 -1 -1 -30 11 -65 28 -195 91 -427 50 -578
-101 -79 -79 -138 -195 -149 -293 l-7 -70 -68 -34 c-137 -69 -251 -220 -278
-367 -13 -72 -6 -183 15 -243 23 -64 -2 -40 -36 35 -41 91 -55 200 -39 292 27
152 134 298 268 369 56 29 63 36 68 70 22 144 66 235 154 322 142 140 351 185
536 115 38 -14 74 -30 80 -35 9 -8 20 5 41 47 39 78 170 209 251 251 133 70
286 88 427 52z"/>
</g>
</svg>
